M48
;DRILL file {KiCad (2016-11-04 revision c7fcb26)-makepkg} date 11/18/16 21:25:40
;FORMAT={-:-/ absolute / inch / decimal}
FMAT,2
INCH,TZ
T1C0.027
T2C0.031
T3C0.032
T4C0.032
T5C0.039
T6C0.040
%
G90
G05
M72
T1
X0.1708Y2.0266
X0.2225Y2.1392
X0.2233Y1.95
X0.349Y2.4796
X0.4125Y2.6752
X0.4193Y1.2661
X0.4661Y2.7354
X0.5051Y0.5153
X0.5673Y1.2207
X0.6228Y2.4363
X0.6776Y2.3064
X0.6783Y1.901
X0.7413Y2.0652
X0.79Y1.4035
X0.8901Y1.9362
X0.8903Y1.7839
X0.9096Y1.3285
X0.932Y1.4897
X0.965Y0.1719
X1.114Y0.1717
X1.2Y2.62
X1.2Y2.5275
X1.2769Y2.6917
X1.3191Y2.3376
X1.3939Y2.4062
X1.45Y2.7396
X1.4768Y0.1718
X1.6083Y2.7396
X1.7127Y2.0525
X1.795Y0.1796
X2.0407Y0.1715
X2.091Y0.9506
X2.1899Y1.047
X2.2177Y1.2205
X2.315Y0.9336
X2.3435Y2.0928
X2.4335Y2.0989
X2.4372Y2.1667
X2.5071Y2.1471
X2.5327Y2.3026
X2.5557Y2.0356
X2.565Y1.059
X2.584Y2.4525
X2.617Y2.5088
X2.65Y2.7436
X2.6618Y2.028
X2.665Y1.2716
X2.7694Y2.0293
X2.8025Y2.1242
X2.865Y2.0289
X3.1374Y2.0159
X3.2183Y2.625
X3.2496Y2.7469
X3.5837Y2.6751
T2
X0.3Y2.3
X0.3Y2.2
X0.3Y2.1
X0.3Y2.
X0.3Y1.9
X0.3Y1.8
X0.3Y1.7
X0.3Y1.6
X0.3Y1.5
X0.3Y1.4
X0.31Y2.58
X0.32Y1.2684
X0.6Y2.3
X0.6Y2.2
X0.6Y2.1
X0.6Y2.
X0.6Y1.9
X0.6Y1.8
X0.6Y1.7
X0.6Y1.6
X0.6Y1.5
X0.6Y1.4
X0.665Y0.85
X0.665Y0.25
X0.765Y0.85
X0.765Y0.25
X0.865Y0.85
X0.865Y0.25
X0.965Y1.25
X0.965Y0.95
X0.965Y0.85
X0.965Y0.25
X1.065Y1.95
X1.065Y1.35
X1.065Y1.25
X1.065Y0.95
X1.065Y0.85
X1.065Y0.25
X1.165Y1.95
X1.165Y1.35
X1.165Y1.25
X1.165Y0.95
X1.165Y0.85
X1.165Y0.25
X1.265Y1.95
X1.265Y1.35
X1.265Y1.25
X1.265Y0.95
X1.265Y0.85
X1.265Y0.25
X1.365Y1.95
X1.365Y1.35
X1.365Y1.25
X1.365Y0.95
X1.365Y0.85
X1.365Y0.25
X1.465Y1.95
X1.465Y1.35
X1.465Y1.25
X1.465Y0.95
X1.465Y0.85
X1.465Y0.25
X1.5311Y2.5941
X1.5311Y2.4957
X1.565Y1.95
X1.565Y1.35
X1.565Y1.25
X1.565Y0.95
X1.565Y0.85
X1.565Y0.25
X1.5816Y2.24
X1.665Y1.95
X1.665Y1.35
X1.665Y1.25
X1.665Y0.95
X1.665Y0.85
X1.665Y0.25
X1.68Y2.24
X1.75Y2.7
X1.75Y2.4
X1.765Y1.95
X1.765Y1.35
X1.765Y1.25
X1.765Y0.95
X1.765Y0.85
X1.765Y0.25
X1.8016Y2.24
X1.85Y2.7
X1.85Y2.4
X1.865Y1.95
X1.865Y1.35
X1.865Y1.25
X1.865Y0.95
X1.865Y0.85
X1.865Y0.25
X1.9Y2.24
X1.95Y2.7
X1.95Y2.4
X1.965Y1.95
X1.965Y1.35
X1.965Y0.85
X1.965Y0.25
X2.02Y1.0434
X2.0216Y2.24
X2.05Y2.7
X2.05Y2.4
X2.065Y1.95
X2.065Y1.35
X2.065Y0.85
X2.065Y0.25
X2.0984Y1.245
X2.12Y2.24
X2.15Y2.7
X2.15Y2.4
X2.165Y1.95
X2.165Y1.35
X2.165Y0.85
X2.165Y0.25
X2.2416Y2.24
X2.25Y2.7
X2.25Y2.4
X2.265Y1.95
X2.265Y1.35
X2.325Y0.345
X2.34Y2.24
X2.35Y2.7
X2.35Y2.4
X2.365Y1.95
X2.365Y1.35
X2.45Y2.7
X2.45Y2.4
X2.465Y1.95
X2.465Y1.35
X2.565Y1.95
X2.565Y1.35
X2.665Y1.95
X2.665Y1.35
X2.765Y1.95
X2.765Y1.35
X2.865Y1.95
X2.865Y1.35
X2.965Y1.95
X2.965Y1.35
X3.25Y1.5534
X3.35Y2.54
X3.35Y2.44
X3.35Y2.34
X3.35Y2.24
X3.35Y2.14
X3.35Y2.04
X3.35Y1.94
X3.35Y1.84
X3.35Y1.74
X3.35Y1.64
X3.6Y0.49
X3.65Y2.54
X3.65Y2.44
X3.65Y2.34
X3.65Y2.24
X3.65Y2.14
X3.65Y2.04
X3.65Y1.94
X3.65Y1.84
X3.65Y1.74
X3.65Y1.64
T3
X0.32Y1.17
X0.4084Y2.58
X2.Y1.245
X2.02Y0.945
X2.325Y0.2466
X3.25Y1.455
X3.6984Y0.49
T4
X0.56Y2.67
X0.56Y2.57
X0.66Y2.62
X0.66Y2.52
X0.76Y2.67
X0.76Y2.57
X0.86Y2.62
X0.86Y2.52
X0.96Y2.67
X0.96Y2.57
X1.06Y2.62
X1.06Y2.52
X2.085Y1.125
X2.185Y1.125
X2.59Y0.91
X2.59Y0.31
X2.7484Y2.56
X2.75Y2.69
X2.75Y2.42
X2.8484Y2.56
X2.85Y2.69
X2.85Y2.42
X2.89Y0.91
X2.89Y0.31
X3.11Y1.19
X3.11Y1.09
X3.51Y0.35
X3.51Y0.25
T5
X3.Y2.69
X3.Y2.56
X3.Y2.42
X3.15Y2.69
X3.15Y2.56
X3.15Y2.42
X3.22Y0.27
X3.32Y0.27
X3.35Y0.91
X3.35Y0.81
X3.35Y0.71
X3.35Y0.61
X3.61Y1.48
X3.69Y0.91
X3.69Y0.81
X3.69Y0.71
X3.76Y1.48
T6
X0.35Y2.85
X0.45Y2.85
X0.55Y2.85
X0.65Y2.85
X0.75Y2.85
X0.85Y2.85
X0.965Y2.23
X1.05Y2.85
X1.065Y2.23
X1.15Y2.85
X1.165Y2.23
X1.265Y2.23
X1.35Y2.85
X1.45Y2.85
X1.55Y2.85
X1.65Y2.85
X1.85Y2.85
X1.95Y2.85
X2.05Y2.85
X2.25Y2.85
X2.35Y2.85
X2.45Y2.85
X2.55Y2.85
X2.65Y2.85
X2.85Y2.85
X2.95Y2.85
X3.05Y2.85
X3.15Y2.85
X3.25Y2.85
X3.35Y2.85
X3.35Y1.26
X3.55Y2.85
X3.55Y1.26
X3.65Y2.85
T0
M30
