G04 #@! TF.FileFunction,Copper,L2,Bot,Signal*
%FSLAX46Y46*%
G04 Gerber Fmt 4.6, Leading zero omitted, Abs format (unit mm)*
G04 Created by KiCad (PCBNEW (2016-11-04 revision c7fcb26)-makepkg) date 11/18/16 21:25:38*
%MOMM*%
%LPD*%
G01*
G04 APERTURE LIST*
%ADD10C,0.100000*%
%ADD11R,1.727200X2.032000*%
%ADD12C,2.032000*%
%ADD13C,1.501140*%
%ADD14R,2.499360X1.501140*%
%ADD15O,2.499360X1.501140*%
%ADD16C,1.397000*%
%ADD17R,1.600000X1.600000*%
%ADD18O,1.600000X1.600000*%
%ADD19R,1.397000X1.397000*%
%ADD20R,1.778000X1.778000*%
%ADD21C,1.778000*%
%ADD22R,1.900000X2.000000*%
%ADD23C,1.900000*%
%ADD24C,1.998980*%
%ADD25R,1.998980X1.998980*%
%ADD26R,2.032000X2.032000*%
%ADD27O,2.032000X2.032000*%
%ADD28O,1.727200X2.032000*%
%ADD29C,1.300000*%
%ADD30R,1.300000X1.300000*%
%ADD31C,1.651000*%
%ADD32R,1.651000X1.651000*%
%ADD33C,1.270000*%
%ADD34C,0.762000*%
%ADD35C,0.381000*%
G04 APERTURE END LIST*
D10*
D11*
X24511000Y56642000D03*
D12*
X27051000Y56642000D03*
X29591000Y56642000D03*
X32131000Y56642000D03*
D10*
G36*
X86001179Y18782763D02*
X86037609Y18777359D01*
X86073334Y18768410D01*
X86108010Y18756003D01*
X86141303Y18740257D01*
X86172892Y18721323D01*
X86202473Y18699384D01*
X86229762Y18674652D01*
X86254494Y18647363D01*
X86276433Y18617782D01*
X86295367Y18586193D01*
X86311113Y18552900D01*
X86323520Y18518224D01*
X86332469Y18482499D01*
X86337873Y18446069D01*
X86339680Y18409285D01*
X86339680Y17658715D01*
X86337873Y17621931D01*
X86332469Y17585501D01*
X86323520Y17549776D01*
X86311113Y17515100D01*
X86295367Y17481807D01*
X86276433Y17450218D01*
X86254494Y17420637D01*
X86229762Y17393348D01*
X86202473Y17368616D01*
X86172892Y17346677D01*
X86141303Y17327743D01*
X86108010Y17311997D01*
X86073334Y17299590D01*
X86037609Y17290641D01*
X86001179Y17285237D01*
X85964395Y17283430D01*
X84215605Y17283430D01*
X84178821Y17285237D01*
X84142391Y17290641D01*
X84106666Y17299590D01*
X84071990Y17311997D01*
X84038697Y17327743D01*
X84007108Y17346677D01*
X83977527Y17368616D01*
X83950238Y17393348D01*
X83925506Y17420637D01*
X83903567Y17450218D01*
X83884633Y17481807D01*
X83868887Y17515100D01*
X83856480Y17549776D01*
X83847531Y17585501D01*
X83842127Y17621931D01*
X83840320Y17658715D01*
X83840320Y18409285D01*
X83842127Y18446069D01*
X83847531Y18482499D01*
X83856480Y18518224D01*
X83868887Y18552900D01*
X83884633Y18586193D01*
X83903567Y18617782D01*
X83925506Y18647363D01*
X83950238Y18674652D01*
X83977527Y18699384D01*
X84007108Y18721323D01*
X84038697Y18740257D01*
X84071990Y18756003D01*
X84106666Y18768410D01*
X84142391Y18777359D01*
X84178821Y18782763D01*
X84215605Y18784570D01*
X85964395Y18784570D01*
X86001179Y18782763D01*
X86001179Y18782763D01*
G37*
D13*
X85090000Y18034000D03*
D14*
X85090000Y15494000D03*
D15*
X85090000Y20574000D03*
X85090000Y23114000D03*
D16*
X89154000Y6350000D03*
X89154000Y8890000D03*
D15*
X93726000Y20574000D03*
D14*
X93726000Y23114000D03*
D15*
X93726000Y18034000D03*
D17*
X92710000Y41656000D03*
D18*
X92710000Y44196000D03*
X92710000Y46736000D03*
X92710000Y49276000D03*
X92710000Y51816000D03*
X92710000Y54356000D03*
X92710000Y56896000D03*
X92710000Y59436000D03*
X92710000Y61976000D03*
X92710000Y64516000D03*
X85090000Y64516000D03*
X85090000Y61976000D03*
X85090000Y59436000D03*
X85090000Y56896000D03*
X85090000Y54356000D03*
X85090000Y51816000D03*
X85090000Y49276000D03*
X85090000Y46736000D03*
X85090000Y44196000D03*
X85090000Y41656000D03*
D19*
X65786000Y23114000D03*
D16*
X65786000Y7874000D03*
X73406000Y7874000D03*
X73406000Y23114000D03*
D17*
X54991000Y21590000D03*
D18*
X52451000Y21590000D03*
X49911000Y21590000D03*
X47371000Y21590000D03*
X44831000Y21590000D03*
X42291000Y21590000D03*
X39751000Y21590000D03*
X37211000Y21590000D03*
X34671000Y21590000D03*
X32131000Y21590000D03*
X29591000Y21590000D03*
X27051000Y21590000D03*
X24511000Y21590000D03*
X21971000Y21590000D03*
X19431000Y21590000D03*
X16891000Y21590000D03*
X16891000Y6350000D03*
X19431000Y6350000D03*
X21971000Y6350000D03*
X24511000Y6350000D03*
X27051000Y6350000D03*
X29591000Y6350000D03*
X32131000Y6350000D03*
X34671000Y6350000D03*
X37211000Y6350000D03*
X39751000Y6350000D03*
X42291000Y6350000D03*
X44831000Y6350000D03*
X47371000Y6350000D03*
X49911000Y6350000D03*
X52451000Y6350000D03*
X54991000Y6350000D03*
D17*
X47371000Y31750000D03*
D18*
X44831000Y31750000D03*
X42291000Y31750000D03*
X39751000Y31750000D03*
X37211000Y31750000D03*
X34671000Y31750000D03*
X32131000Y31750000D03*
X29591000Y31750000D03*
X27051000Y31750000D03*
X24511000Y31750000D03*
X24511000Y24130000D03*
X27051000Y24130000D03*
X29591000Y24130000D03*
X32131000Y24130000D03*
X34671000Y24130000D03*
X37211000Y24130000D03*
X39751000Y24130000D03*
X42291000Y24130000D03*
X44831000Y24130000D03*
X47371000Y24130000D03*
D20*
X90170000Y32004000D03*
D21*
X85090000Y32004000D03*
D22*
X81788000Y6858000D03*
D23*
X84328000Y6858000D03*
D17*
X27051000Y34290000D03*
D18*
X29591000Y34290000D03*
X32131000Y34290000D03*
X34671000Y34290000D03*
X37211000Y34290000D03*
X39751000Y34290000D03*
X42291000Y34290000D03*
X44831000Y34290000D03*
X47371000Y34290000D03*
X49911000Y34290000D03*
X52451000Y34290000D03*
X54991000Y34290000D03*
X57531000Y34290000D03*
X60071000Y34290000D03*
X62611000Y34290000D03*
X65151000Y34290000D03*
X67691000Y34290000D03*
X70231000Y34290000D03*
X72771000Y34290000D03*
X75311000Y34290000D03*
X75311000Y49530000D03*
X72771000Y49530000D03*
X70231000Y49530000D03*
X67691000Y49530000D03*
X65151000Y49530000D03*
X62611000Y49530000D03*
X60071000Y49530000D03*
X57531000Y49530000D03*
X54991000Y49530000D03*
X52451000Y49530000D03*
X49911000Y49530000D03*
X47371000Y49530000D03*
X44831000Y49530000D03*
X42291000Y49530000D03*
X39751000Y49530000D03*
X37211000Y49530000D03*
X34671000Y49530000D03*
X32131000Y49530000D03*
X29591000Y49530000D03*
X27051000Y49530000D03*
D17*
X15240000Y35560000D03*
D18*
X15240000Y38100000D03*
X15240000Y40640000D03*
X15240000Y43180000D03*
X15240000Y45720000D03*
X15240000Y48260000D03*
X15240000Y50800000D03*
X15240000Y53340000D03*
X15240000Y55880000D03*
X15240000Y58420000D03*
X7620000Y58420000D03*
X7620000Y55880000D03*
X7620000Y53340000D03*
X7620000Y50800000D03*
X7620000Y48260000D03*
X7620000Y45720000D03*
X7620000Y43180000D03*
X7620000Y40640000D03*
X7620000Y38100000D03*
X7620000Y35560000D03*
D17*
X44450000Y60960000D03*
D18*
X46990000Y60960000D03*
X49530000Y60960000D03*
X52070000Y60960000D03*
X54610000Y60960000D03*
X57150000Y60960000D03*
X59690000Y60960000D03*
X62230000Y60960000D03*
X62230000Y68580000D03*
X59690000Y68580000D03*
X57150000Y68580000D03*
X54610000Y68580000D03*
X52070000Y68580000D03*
X49530000Y68580000D03*
X46990000Y68580000D03*
X44450000Y68580000D03*
D24*
X95504000Y37592000D03*
D25*
X91694000Y37592000D03*
D24*
X76200000Y65024000D03*
D25*
X80010000Y65024000D03*
D24*
X76200000Y61468000D03*
D25*
X80010000Y61468000D03*
D24*
X76200000Y68326000D03*
D25*
X80010000Y68326000D03*
D26*
X90170000Y72390000D03*
D27*
X92710000Y72390000D03*
D11*
X46990000Y72390000D03*
D28*
X49530000Y72390000D03*
X52070000Y72390000D03*
D11*
X34290000Y72390000D03*
D28*
X36830000Y72390000D03*
X39370000Y72390000D03*
X41910000Y72390000D03*
D26*
X26670000Y72390000D03*
D27*
X29210000Y72390000D03*
D11*
X8890000Y72390000D03*
D28*
X11430000Y72390000D03*
X13970000Y72390000D03*
X16510000Y72390000D03*
X19050000Y72390000D03*
X21590000Y72390000D03*
D11*
X57150000Y72390000D03*
D28*
X59690000Y72390000D03*
X62230000Y72390000D03*
X64770000Y72390000D03*
X67310000Y72390000D03*
D11*
X72390000Y72390000D03*
D28*
X74930000Y72390000D03*
X77470000Y72390000D03*
X80010000Y72390000D03*
X82550000Y72390000D03*
X85090000Y72390000D03*
D16*
X55499000Y28575000D03*
X52959000Y28575000D03*
X14224000Y67818000D03*
X14224000Y65278000D03*
X19304000Y67818000D03*
X19304000Y65278000D03*
X24384000Y67818000D03*
X24384000Y65278000D03*
X16764000Y66548000D03*
X16764000Y64008000D03*
X21844000Y66548000D03*
X21844000Y64008000D03*
X26924000Y66548000D03*
X26924000Y64008000D03*
X69850000Y61468000D03*
X72390000Y61468000D03*
X69809000Y65024000D03*
X72349000Y65024000D03*
X69850000Y68326000D03*
X72390000Y68326000D03*
D29*
X7874000Y65532000D03*
X10374000Y65532000D03*
X48260000Y56896000D03*
D30*
X45760000Y56896000D03*
X51348000Y56896000D03*
D29*
X53848000Y56896000D03*
X42672000Y56896000D03*
D30*
X40172000Y56896000D03*
X56936000Y56896000D03*
D29*
X59436000Y56896000D03*
X8128000Y32218000D03*
X8128000Y29718000D03*
X82550000Y36957000D03*
X82550000Y39457000D03*
X59055000Y8763000D03*
X59055000Y6263000D03*
X50800000Y31623000D03*
X53300000Y31623000D03*
X38890000Y63390000D03*
D30*
X38890000Y65890000D03*
D29*
X51308000Y26503000D03*
X51308000Y24003000D03*
X93940000Y12446000D03*
X91440000Y12446000D03*
D31*
X78994000Y30226000D03*
D32*
X78994000Y27686000D03*
D33*
X22608540Y49179480D03*
X22613620Y45311060D03*
X30480000Y66548000D03*
X30480000Y64198500D03*
X8864800Y62981400D03*
X15818100Y61883000D03*
X10478600Y67950900D03*
X61904800Y55034800D03*
X33505140Y59375040D03*
X81744200Y66675000D03*
X71182231Y53955831D03*
X91024800Y67947900D03*
X51833000Y4356100D03*
X23673500Y37839500D03*
X79688900Y51202900D03*
X82538700Y69770400D03*
X35406000Y61116800D03*
X67310000Y69686700D03*
X45593000Y4561861D03*
X10650220Y32158940D03*
X55623460Y26593904D03*
X53111296Y24145240D03*
X40850200Y69584900D03*
X36830000Y69584900D03*
X66471100Y63724300D03*
X11838100Y69479700D03*
X64330600Y58486000D03*
X5651600Y54336500D03*
X17210700Y58581500D03*
X32432400Y68369500D03*
X65632800Y62293200D03*
X65151000Y26898400D03*
X37511200Y4363500D03*
X67691000Y32297700D03*
X23103200Y33743900D03*
X72771000Y51533800D03*
X20066400Y35649000D03*
X70341500Y51543000D03*
X14410400Y31005400D03*
X67608700Y51511100D03*
X17228100Y48285100D03*
X18829600Y52456900D03*
X12828900Y13089300D03*
X64915100Y51704000D03*
X61810500Y53312000D03*
X4337100Y51475900D03*
X59524600Y53158000D03*
X5671000Y49530000D03*
X58801600Y23714300D03*
X24511000Y4367100D03*
X28295800Y4360300D03*
X56330200Y30999700D03*
X43501400Y52133510D03*
X63680400Y54535300D03*
D34*
X22608540Y49179480D02*
X22608540Y56365140D01*
X22608540Y56365140D02*
X22885400Y56642000D01*
X22885400Y56642000D02*
X24511000Y56642000D01*
X24511000Y31750000D02*
X24511000Y35122398D01*
X24511000Y35122398D02*
X22195063Y37438335D01*
X22195063Y37438335D02*
X22195063Y44892503D01*
X22195063Y44892503D02*
X22613620Y45311060D01*
D35*
X32718900Y3222100D02*
X30390999Y5550001D01*
X42759359Y3222100D02*
X32718900Y3222100D01*
X60215400Y7874000D02*
X60215400Y5870700D01*
X51091181Y2847340D02*
X43134119Y2847340D01*
X57566800Y3222100D02*
X51465941Y3222100D01*
X43134119Y2847340D02*
X42759359Y3222100D01*
X30390999Y5550001D02*
X29591000Y6350000D01*
X51465941Y3222100D02*
X51091181Y2847340D01*
X60215400Y5870700D02*
X57566800Y3222100D01*
X53300000Y31623000D02*
X54103900Y31623000D01*
X54103900Y31623000D02*
X57050940Y28675960D01*
X57050940Y28675960D02*
X57050940Y26291540D01*
X57050940Y26291540D02*
X55672990Y24913590D01*
X55672990Y24913590D02*
X53904080Y26682500D01*
X53904080Y26682500D02*
X51308000Y26682500D01*
X81788000Y6858000D02*
X80393200Y6858000D01*
X78361200Y4826000D02*
X68834000Y4826000D01*
X80393200Y6858000D02*
X78361200Y4826000D01*
X68834000Y4826000D02*
X65786000Y7874000D01*
X93940000Y12446000D02*
X93940000Y12020300D01*
X88064860Y7597140D02*
X87394500Y8267500D01*
X87394500Y8267500D02*
X83197500Y8267500D01*
X93940000Y12020300D02*
X90726260Y8806560D01*
X90726260Y8806560D02*
X90726260Y7818120D01*
X90726260Y7818120D02*
X90505280Y7597140D01*
X83197500Y8267500D02*
X81788000Y6858000D01*
X90505280Y7597140D02*
X88064860Y7597140D01*
D34*
X30480000Y66548000D02*
X30480000Y68580000D01*
X30480000Y68580000D02*
X26670000Y72390000D01*
X24511000Y56642000D02*
X24511000Y58229500D01*
X24511000Y58229500D02*
X30480000Y64198500D01*
D35*
X49911000Y50774800D02*
X49047200Y50774800D01*
X49047200Y50774800D02*
X42926000Y56896000D01*
X42926000Y56896000D02*
X42672000Y56896000D01*
X38608000Y62920900D02*
X38608000Y56134000D01*
X39077100Y63390000D02*
X38608000Y62920900D01*
X38608000Y56134000D02*
X39116000Y55626000D01*
X39116000Y55626000D02*
X41402000Y55626000D01*
X41402000Y55626000D02*
X42672000Y56896000D01*
D34*
X93726000Y20574000D02*
X89408000Y20574000D01*
X85090000Y31375400D02*
X85090000Y30746800D01*
X85090000Y30746800D02*
X89408000Y26428800D01*
X89408000Y26428800D02*
X89408000Y18034000D01*
X89408000Y18034000D02*
X85090000Y18034000D01*
X95250000Y64516000D02*
X95250000Y59436000D01*
X95250000Y59436000D02*
X95250000Y40386000D01*
D35*
X92710000Y59436000D02*
X95250000Y59436000D01*
D34*
X95250000Y64770000D02*
X95250000Y64516000D01*
D35*
X92710000Y64516000D02*
X95250000Y64516000D01*
D34*
X90170000Y72390000D02*
X90170000Y70866000D01*
X90170000Y70866000D02*
X95250000Y65786000D01*
X95250000Y65786000D02*
X95250000Y64770000D01*
X95250000Y40386000D02*
X93891600Y39027600D01*
X85090000Y32004000D02*
X85090000Y35560000D01*
X85090000Y35560000D02*
X89408000Y39878000D01*
X85712400Y49276000D02*
X89408000Y45580400D01*
X89408000Y45580400D02*
X89408000Y39878000D01*
X89408000Y39878000D02*
X92964000Y39878000D01*
X92964000Y39878000D02*
X93814400Y39027600D01*
D35*
X93814400Y39027600D02*
X93891600Y39027600D01*
D34*
X90170000Y72390000D02*
X90170000Y71120000D01*
X72390000Y72390000D02*
X72390000Y74168000D01*
X57150000Y74168000D02*
X46990000Y74168000D01*
X57150000Y72390000D02*
X57150000Y74168000D01*
X46990000Y74168000D02*
X34290000Y74168000D01*
X34290000Y74168000D02*
X26670000Y74168000D01*
X34290000Y72390000D02*
X34290000Y74168000D01*
X8890000Y74168000D02*
X8890000Y72390000D01*
X26670000Y74168000D02*
X8890000Y74168000D01*
X72390000Y74168000D02*
X57150000Y74168000D01*
X90170000Y74168000D02*
X72390000Y74168000D01*
X90170000Y72390000D02*
X90170000Y74168000D01*
X26670000Y72390000D02*
X26670000Y74168000D01*
X46990000Y72390000D02*
X46990000Y74168000D01*
D35*
X90741400Y70548600D02*
X90170000Y71120000D01*
X94225000Y20574000D02*
X94663900Y21012900D01*
X93726000Y20574000D02*
X94225000Y20574000D01*
X16891000Y21590000D02*
X15646200Y21590000D01*
X8890000Y72390000D02*
X8890000Y70929200D01*
X29591000Y6350000D02*
X29591000Y7594800D01*
X16891000Y21590000D02*
X16891000Y20345200D01*
X85090000Y59436000D02*
X85090000Y58191200D01*
X85090000Y54356000D02*
X86334800Y54356000D01*
X85605800Y58191200D02*
X85090000Y58191200D01*
X86334800Y57462200D02*
X85605800Y58191200D01*
X86334800Y54356000D02*
X86334800Y57462200D01*
X85090000Y64516000D02*
X85090000Y63271200D01*
X85090000Y59436000D02*
X85090000Y60680800D01*
X24511000Y31750000D02*
X24511000Y30505200D01*
X17629800Y19606400D02*
X16891000Y20345200D01*
X25781000Y19606400D02*
X17629800Y19606400D01*
X25781000Y11404800D02*
X25781000Y19606400D01*
X29591000Y7594800D02*
X25781000Y11404800D01*
X25781000Y29235200D02*
X24511000Y30505200D01*
X25781000Y19606400D02*
X25781000Y29235200D01*
X47371000Y31750000D02*
X47371000Y30505200D01*
X95444100Y13950100D02*
X93940000Y12446000D01*
X95444100Y20232700D02*
X95444100Y13950100D01*
X94663900Y21012900D02*
X95444100Y20232700D01*
D34*
X85090000Y32004000D02*
X85090000Y31375400D01*
D35*
X82683400Y33782000D02*
X82550000Y33782000D01*
D34*
X85090000Y31375400D02*
X82683400Y33782000D01*
X78994000Y30226000D02*
X82550000Y33782000D01*
X82550000Y33782000D02*
X82550000Y36957000D01*
D35*
X49911000Y49530000D02*
X49911000Y50774800D01*
X52451000Y34290000D02*
X52451000Y35534800D01*
X15646200Y22199800D02*
X8128000Y29718000D01*
X15646200Y21590000D02*
X15646200Y22199800D01*
X56936000Y56896000D02*
X56936000Y55801200D01*
X46990000Y72390000D02*
X46990000Y68580000D01*
X46990000Y68580000D02*
X45745200Y68580000D01*
X52671200Y51536400D02*
X56936000Y55801200D01*
X52671200Y51108200D02*
X52671200Y51536400D01*
X50244400Y51108200D02*
X52671200Y51108200D01*
X49911000Y50774800D02*
X50244400Y51108200D01*
X52451000Y36433200D02*
X52451000Y35534800D01*
X53721000Y37703200D02*
X52451000Y36433200D01*
X53721000Y50058400D02*
X53721000Y37703200D01*
X52671200Y51108200D02*
X53721000Y50058400D01*
X60215400Y7874000D02*
X65786000Y7874000D01*
X59326400Y8763000D02*
X60215400Y7874000D01*
X59055000Y8763000D02*
X59326400Y8763000D01*
X85090000Y49276000D02*
X85712400Y49276000D01*
D34*
X96266000Y22615000D02*
X94663900Y21012900D01*
X96266000Y33782000D02*
X96266000Y22615000D01*
X93599000Y36449000D02*
X96266000Y33782000D01*
X93599000Y38735000D02*
X93599000Y36449000D01*
X93891600Y39027600D02*
X93599000Y38735000D01*
D35*
X86334800Y49898400D02*
X86334800Y54356000D01*
X85712400Y49276000D02*
X86334800Y49898400D01*
X41022000Y63390000D02*
X39077100Y63390000D01*
X45745200Y68113200D02*
X41022000Y63390000D01*
X45745200Y68580000D02*
X45745200Y68113200D01*
X39077100Y63390000D02*
X38890000Y63390000D01*
X51308000Y26682500D02*
X51308000Y26503000D01*
X51193700Y26682500D02*
X51308000Y26682500D01*
X47371000Y30505200D02*
X51193700Y26682500D01*
X52451000Y32472000D02*
X53300000Y31623000D01*
X52451000Y34290000D02*
X52451000Y32472000D01*
X84624800Y60680800D02*
X85090000Y60680800D01*
X83845200Y61460400D02*
X84624800Y60680800D01*
X83845200Y62491600D02*
X83845200Y61460400D01*
X84624800Y63271200D02*
X83845200Y62491600D01*
X85090000Y63271200D02*
X84624800Y63271200D01*
X7874000Y65532000D02*
X8107200Y65532000D01*
X8890000Y66314800D02*
X8107200Y65532000D01*
X8890000Y70929200D02*
X8890000Y66314800D01*
X8107200Y63739000D02*
X8864800Y62981400D01*
X8107200Y65532000D02*
X8107200Y63739000D01*
X15240000Y61304900D02*
X15240000Y58420000D01*
X15818100Y61883000D02*
X15240000Y61304900D01*
X11430000Y72390000D02*
X11430000Y70929200D01*
X70231000Y34290000D02*
X70231000Y35534800D01*
X10478600Y69977800D02*
X10478600Y67950900D01*
X11430000Y70929200D02*
X10478600Y69977800D01*
X10478600Y65636600D02*
X10374000Y65532000D01*
X10478600Y67950900D02*
X10478600Y65636600D01*
X63868400Y41897400D02*
X70231000Y35534800D01*
X63868400Y51223700D02*
X63868400Y41897400D01*
X63835300Y51256800D02*
X63868400Y51223700D01*
X63835300Y52814200D02*
X63835300Y51256800D01*
X61904800Y54744700D02*
X63835300Y52814200D01*
X61904800Y55034800D02*
X61904800Y54744700D01*
X85889999Y43396001D02*
X85090000Y44196000D01*
X83248301Y38051501D02*
X86334900Y41138100D01*
X86334900Y41138100D02*
X86334900Y42951100D01*
X81455499Y37482361D02*
X82024639Y38051501D01*
X81455499Y34818559D02*
X81455499Y37482361D01*
X77714800Y31077860D02*
X81455499Y34818559D01*
X78994000Y27686000D02*
X77787500Y27686000D01*
X77714800Y27758700D02*
X77714800Y31077860D01*
X82024639Y38051501D02*
X83248301Y38051501D01*
X77787500Y27686000D02*
X77714800Y27758700D01*
X86334900Y42951100D02*
X85889999Y43396001D01*
X78994000Y27686000D02*
X78994000Y25400000D01*
X78994000Y25400000D02*
X83820000Y20574000D01*
X83820000Y20574000D02*
X85090000Y20574000D01*
X72497500Y69957500D02*
X74930000Y72390000D01*
X71481500Y69957500D02*
X72497500Y69957500D01*
X69850000Y68326000D02*
X71481500Y69957500D01*
X69850000Y64983000D02*
X69809000Y65024000D01*
X69850000Y61468000D02*
X69850000Y64983000D01*
X69809000Y68285000D02*
X69850000Y68326000D01*
X69809000Y65024000D02*
X69809000Y68285000D01*
X85605800Y45440800D02*
X85090000Y45440800D01*
X86381300Y46216300D02*
X85605800Y45440800D01*
X86381300Y47224000D02*
X86381300Y46216300D01*
X85599300Y48006000D02*
X86381300Y47224000D01*
X84521200Y48006000D02*
X85599300Y48006000D01*
X73562100Y58965100D02*
X84521200Y48006000D01*
X72352900Y58965100D02*
X73562100Y58965100D01*
X69850000Y61468000D02*
X72352900Y58965100D01*
X85090000Y44196000D02*
X85090000Y45440800D01*
X88646000Y6858000D02*
X89154000Y6350000D01*
X84328000Y6858000D02*
X88646000Y6858000D01*
X84574200Y53060800D02*
X85090000Y53060800D01*
X78565600Y59069400D02*
X84574200Y53060800D01*
X78565600Y62676900D02*
X78565600Y59069400D01*
X79468400Y63579700D02*
X78565600Y62676900D01*
X80010000Y63579700D02*
X79468400Y63579700D01*
X80010000Y65024000D02*
X80010000Y63579700D01*
X85090000Y51816000D02*
X85090000Y53060800D01*
X85090000Y56896000D02*
X83845200Y56896000D01*
X80010000Y61468000D02*
X80010000Y60023700D01*
X83137700Y56896000D02*
X83845200Y56896000D01*
X80010000Y60023700D02*
X83137700Y56896000D01*
X34295080Y58012520D02*
X34295080Y58585100D01*
X34295080Y58585100D02*
X33505140Y59375040D01*
X34671000Y57636600D02*
X34295080Y58012520D01*
X34671000Y49530000D02*
X34671000Y57636600D01*
X92710000Y41656000D02*
X92710000Y42900800D01*
X80010000Y68326000D02*
X81454300Y68326000D01*
X92243100Y42900800D02*
X92710000Y42900800D01*
X91465200Y43678700D02*
X92243100Y42900800D01*
X91465200Y46081800D02*
X91465200Y43678700D01*
X87016300Y50530700D02*
X91465200Y46081800D01*
X87016300Y64394200D02*
X87016300Y50530700D01*
X83084500Y68326000D02*
X87016300Y64394200D01*
X81454300Y68326000D02*
X83084500Y68326000D01*
X80010000Y68326000D02*
X81454300Y68326000D01*
X81454300Y66964900D02*
X81744200Y66675000D01*
X81454300Y68326000D02*
X81454300Y66964900D01*
X70547232Y54590830D02*
X71182231Y53955831D01*
X64142000Y69081000D02*
X64142000Y60996062D01*
X62230000Y70993000D02*
X64142000Y69081000D01*
X62230000Y72390000D02*
X62230000Y70993000D01*
X64142000Y60996062D02*
X70547232Y54590830D01*
X41021000Y5858500D02*
X41021000Y7226500D01*
X38951001Y35089999D02*
X39751000Y34290000D01*
X35941000Y12306500D02*
X35941000Y27838800D01*
X50828151Y3482351D02*
X43397149Y3482351D01*
X43397149Y3482351D02*
X41021000Y5858500D01*
X51791200Y4445400D02*
X50828151Y3482351D01*
X41021000Y7226500D02*
X35941000Y12306500D01*
X33401000Y34845300D02*
X34097600Y35541900D01*
X33401000Y30378800D02*
X33401000Y34845300D01*
X38499100Y35541900D02*
X38951001Y35089999D01*
X34097600Y35541900D02*
X38499100Y35541900D01*
X35941000Y27838800D02*
X33401000Y30378800D01*
X92194200Y55600800D02*
X92710000Y55600800D01*
X91024800Y56770200D02*
X92194200Y55600800D01*
X91024800Y67947900D02*
X91024800Y56770200D01*
X92710000Y54356000D02*
X92710000Y55600800D01*
X39751000Y34290000D02*
X39751000Y31750000D01*
X52451000Y6350000D02*
X52451000Y5105200D01*
X52451000Y5105200D02*
X51791200Y4445400D01*
X51791200Y4397900D02*
X51833000Y4356100D01*
X51791200Y4445400D02*
X51791200Y4397900D01*
X42291000Y31750000D02*
X42291000Y30505200D01*
X42291000Y30505200D02*
X43535800Y29260400D01*
X48407320Y19865340D02*
X48666200Y20124220D01*
X43535800Y29260400D02*
X43535800Y20022620D01*
X43693080Y19865340D02*
X48407320Y19865340D01*
X43535800Y20022620D02*
X43693080Y19865340D01*
X48666200Y20124220D02*
X48666200Y21590000D01*
X48666200Y21590000D02*
X49911000Y21590000D01*
X42291000Y34290000D02*
X41668600Y34290000D01*
X41668600Y33617200D02*
X42291000Y32994800D01*
X41668600Y34290000D02*
X41668600Y33617200D01*
X38119100Y37839500D02*
X23673500Y37839500D01*
X41668600Y34290000D02*
X38119100Y37839500D01*
X42291000Y32372400D02*
X42291000Y32994800D01*
X42291000Y32372400D02*
X42291000Y31750000D01*
X83845200Y47046600D02*
X83845200Y46736000D01*
X79688900Y51202900D02*
X83845200Y47046600D01*
X85090000Y46736000D02*
X83845200Y46736000D01*
X64770000Y72390000D02*
X64770000Y70929200D01*
X78470600Y51202900D02*
X79688900Y51202900D01*
X68186300Y61487200D02*
X78470600Y51202900D01*
X68186300Y66789900D02*
X68186300Y61487200D01*
X64770000Y70206200D02*
X68186300Y66789900D01*
X64770000Y70929200D02*
X64770000Y70206200D01*
X38481000Y40640000D02*
X44031001Y35089999D01*
X35406000Y61116800D02*
X35406000Y60218775D01*
X38481000Y51822100D02*
X38481000Y40640000D01*
X35814000Y54489100D02*
X38481000Y51822100D01*
X35814000Y59810775D02*
X35814000Y54489100D01*
X35406000Y60218775D02*
X35814000Y59810775D01*
X44031001Y35089999D02*
X44831000Y34290000D01*
X46855200Y22834800D02*
X47371000Y22834800D01*
X46101000Y23589000D02*
X46855200Y22834800D01*
X46101000Y26695200D02*
X46101000Y23589000D01*
X44831000Y27965200D02*
X46101000Y26695200D01*
X44831000Y31750000D02*
X44831000Y27965200D01*
X47371000Y21590000D02*
X47371000Y22834800D01*
X44831000Y34290000D02*
X44831000Y31750000D01*
X92710000Y49276000D02*
X91465200Y49276000D01*
X87914800Y64394300D02*
X82538700Y69770400D01*
X87914800Y52826400D02*
X87914800Y64394300D01*
X91465200Y49276000D02*
X87914800Y52826400D01*
X67310000Y72390000D02*
X67310000Y69686700D01*
X38589940Y54355978D02*
X37143000Y55802918D01*
X39770300Y70097900D02*
X41910000Y72237600D01*
X44831000Y49530000D02*
X44831000Y52376172D01*
X42851194Y54355978D02*
X38589940Y54355978D01*
X37143000Y55802918D02*
X37143000Y66163700D01*
X37143000Y66163700D02*
X39770300Y68791000D01*
X41910000Y72237600D02*
X41910000Y72390000D01*
X39770300Y68791000D02*
X39770300Y70097900D01*
X44831000Y52376172D02*
X42851194Y54355978D01*
D34*
X82369660Y44523660D02*
X82369660Y45895260D01*
X82369660Y45895260D02*
X67066160Y61198760D01*
X67066160Y61198760D02*
X67066160Y63129240D01*
X67066160Y63129240D02*
X66471100Y63724300D01*
X83845200Y41656000D02*
X83845200Y43015100D01*
X83845200Y43015100D02*
X82443320Y44416980D01*
X73406000Y30313000D02*
X74661400Y30313000D01*
X74661400Y30313000D02*
X79207360Y34858960D01*
X79207360Y34858960D02*
X79207360Y36786820D01*
D35*
X79207360Y36786820D02*
X79204820Y36789360D01*
X79204820Y36789360D02*
X79204820Y36911280D01*
D34*
X79204820Y36911280D02*
X81750540Y39457000D01*
X81750540Y39457000D02*
X82550000Y39457000D01*
D35*
X45620940Y4318000D02*
X45593000Y4345940D01*
X45593000Y4345940D02*
X45593000Y4561861D01*
D34*
X48493500Y4318000D02*
X47640400Y4318000D01*
D35*
X47640400Y4318000D02*
X46101000Y5857400D01*
X46101000Y5857400D02*
X46101000Y13075000D01*
X46101000Y13075000D02*
X51181000Y18155000D01*
X51181000Y18155000D02*
X51181000Y23876000D01*
D34*
X49256300Y5080800D02*
X48493500Y4318000D01*
X48493500Y4318000D02*
X45620940Y4318000D01*
X50525500Y6350000D02*
X50525500Y7599500D01*
X50525500Y7599500D02*
X51054000Y8128000D01*
X51054000Y8128000D02*
X53848000Y8128000D01*
X53848000Y8128000D02*
X54991000Y6985000D01*
D35*
X54991000Y6985000D02*
X54991000Y6350000D01*
D34*
X78486000Y10347900D02*
X78486000Y9906000D01*
X70574300Y5842000D02*
X65748300Y10668000D01*
X78486000Y9906000D02*
X74422000Y5842000D01*
X74422000Y5842000D02*
X70574300Y5842000D01*
X65748300Y10668000D02*
X58674000Y10668000D01*
D35*
X57404000Y6827600D02*
X57881600Y6350000D01*
D34*
X58674000Y10668000D02*
X57404000Y9398000D01*
X57404000Y9398000D02*
X57404000Y6827600D01*
D35*
X8128000Y32218000D02*
X10591160Y32218000D01*
X10591160Y32218000D02*
X10650220Y32158940D01*
X55623460Y26593904D02*
X55623460Y28450540D01*
X55623460Y28450540D02*
X55499000Y28575000D01*
X51308000Y24003000D02*
X52969056Y24003000D01*
X52969056Y24003000D02*
X53111296Y24145240D01*
X91440000Y12446000D02*
X91440000Y15245080D01*
X91440000Y15245080D02*
X91178380Y15506700D01*
X37859000Y65890000D02*
X38890000Y65890000D01*
X47371000Y49530000D02*
X47371000Y50734213D01*
X43114224Y54990989D02*
X38852970Y54990989D01*
X37778300Y65809300D02*
X37859000Y65890000D01*
X47371000Y50734213D02*
X43114224Y54990989D01*
X38852970Y54990989D02*
X37778300Y56065659D01*
X37778300Y56065659D02*
X37778300Y65809300D01*
X7620000Y35560000D02*
X7620000Y36804800D01*
X7620000Y36804800D02*
X8086800Y36804800D01*
X11138600Y51030000D02*
X14718600Y54610000D01*
X8086800Y36804800D02*
X11138600Y39856600D01*
X25334000Y63772400D02*
X25334000Y64059800D01*
X11138600Y39856600D02*
X11138600Y51030000D01*
X14718600Y54610000D02*
X16171600Y54610000D01*
X26615700Y65341500D02*
X32586600Y65341500D01*
X16171600Y54610000D02*
X25334000Y63772400D01*
X25334000Y64059800D02*
X26615700Y65341500D01*
X32586600Y65341500D02*
X36830000Y69584900D01*
X85090000Y23114000D02*
X85589110Y23114000D01*
X83459320Y15494000D02*
X85090000Y15494000D01*
X85589110Y23114000D02*
X86868000Y21835110D01*
X86868000Y21835110D02*
X86868000Y20012952D01*
X86868000Y20012952D02*
X86159048Y19304000D01*
X86159048Y19304000D02*
X83312000Y19304000D01*
X83312000Y15641320D02*
X83459320Y15494000D01*
X83312000Y19304000D02*
X83312000Y15641320D01*
D34*
X93726000Y18034000D02*
X91186000Y15494000D01*
X91186000Y15494000D02*
X85090000Y15494000D01*
X78486000Y18034000D02*
X78486000Y15494000D01*
X78486000Y15494000D02*
X78486000Y10347900D01*
X85090000Y15494000D02*
X78486000Y15494000D01*
D35*
X8128000Y33807200D02*
X8128000Y32218000D01*
X7620000Y34315200D02*
X8128000Y33807200D01*
X44450000Y68580000D02*
X43205200Y68580000D01*
D34*
X54991000Y6350000D02*
X56235800Y6350000D01*
D35*
X85090000Y41656000D02*
X83845200Y41656000D01*
X7620000Y35560000D02*
X7620000Y34315200D01*
D34*
X36830000Y72390000D02*
X36830000Y69584900D01*
X83845200Y40752200D02*
X83845200Y41656000D01*
X82550000Y39457000D02*
X83845200Y40752200D01*
X73406000Y23114000D02*
X73406000Y30313000D01*
D35*
X52451000Y49530000D02*
X51206200Y49530000D01*
X49433300Y48245700D02*
X49911000Y48245700D01*
X48615800Y49063200D02*
X49433300Y48245700D01*
X48615800Y49530000D02*
X48615800Y49063200D01*
X51206200Y49014200D02*
X51206200Y49530000D01*
X50437700Y48245700D02*
X51206200Y49014200D01*
X49911000Y48245700D02*
X50437700Y48245700D01*
X49911000Y34290000D02*
X49911000Y48245700D01*
X49911000Y34290000D02*
X49911000Y33045200D01*
X50800000Y32156200D02*
X50800000Y31623000D01*
X49911000Y33045200D02*
X50800000Y32156200D01*
D34*
X78486000Y18034000D02*
X73406000Y23114000D01*
X56235800Y6350000D02*
X57881600Y6350000D01*
X57968600Y6263000D02*
X59055000Y6263000D01*
X57881600Y6350000D02*
X57968600Y6263000D01*
D35*
X47371000Y49530000D02*
X48615800Y49530000D01*
X54633700Y28575000D02*
X55499000Y28575000D01*
X51585700Y31623000D02*
X54633700Y28575000D01*
X50800000Y31623000D02*
X51585700Y31623000D01*
X47371000Y24130000D02*
X48615800Y24130000D01*
X48869800Y23876000D02*
X48615800Y24130000D01*
X51181000Y23876000D02*
X48869800Y23876000D01*
X51181000Y23876000D02*
X51308000Y24003000D01*
X49911000Y6350000D02*
X50525500Y6350000D01*
D34*
X50525500Y6350000D02*
X49256300Y5080800D01*
D35*
X38890000Y65890000D02*
X38890000Y66984800D01*
X38890000Y66984800D02*
X41085300Y69180100D01*
X41685400Y68580000D02*
X41085300Y69180100D01*
X43205200Y68580000D02*
X41685400Y68580000D01*
X40850200Y69415200D02*
X40850200Y69584900D01*
X41085300Y69180100D02*
X40850200Y69415200D01*
X89154000Y10160000D02*
X89154000Y8890000D01*
X91440000Y12446000D02*
X89154000Y10160000D01*
X41491001Y50329999D02*
X42291000Y49530000D01*
X36507600Y55313400D02*
X41491001Y50329999D01*
X36507600Y66540100D02*
X36507600Y55313400D01*
X38827800Y68860300D02*
X36507600Y66540100D01*
X38827800Y70387000D02*
X38827800Y68860300D01*
X39370000Y72390000D02*
X39370000Y70929200D01*
X39370000Y70929200D02*
X38827800Y70387000D01*
X21590000Y70612000D02*
X24384000Y67818000D01*
X21590000Y72390000D02*
X21590000Y70612000D01*
X25654000Y67818000D02*
X26924000Y66548000D01*
X24384000Y67818000D02*
X25654000Y67818000D01*
X19050000Y72390000D02*
X19050000Y70929200D01*
X19304000Y70675200D02*
X19304000Y67818000D01*
X19050000Y70929200D02*
X19304000Y70675200D01*
X20574000Y67818000D02*
X21844000Y66548000D01*
X19304000Y67818000D02*
X20574000Y67818000D01*
X16510000Y72390000D02*
X16510000Y70929200D01*
X16510000Y70929200D02*
X16510000Y67818000D01*
X16764000Y67564000D02*
X16510000Y67818000D01*
X16764000Y66548000D02*
X16764000Y67564000D01*
X16510000Y67818000D02*
X14224000Y67818000D01*
X66421000Y41884800D02*
X72771000Y35534800D01*
X66421000Y56395600D02*
X66421000Y41884800D01*
X64330600Y58486000D02*
X66421000Y56395600D01*
X13287600Y70929200D02*
X11838100Y69479700D01*
X13970000Y70929200D02*
X13287600Y70929200D01*
X13970000Y72390000D02*
X13970000Y70929200D01*
X72771000Y34290000D02*
X72771000Y35534800D01*
X7620000Y40640000D02*
X7620000Y41884800D01*
X9575300Y60629300D02*
X14224000Y65278000D01*
X9575300Y43373300D02*
X9575300Y60629300D01*
X8086800Y41884800D02*
X9575300Y43373300D01*
X7620000Y41884800D02*
X8086800Y41884800D01*
X19304000Y60674800D02*
X17210700Y58581500D01*
X19304000Y65278000D02*
X19304000Y60674800D01*
X5651600Y52768400D02*
X5651600Y54336500D01*
X7620000Y50800000D02*
X5651600Y52768400D01*
X15240000Y55880000D02*
X16484800Y55880000D01*
X24384000Y63779200D02*
X24384000Y65278000D01*
X16484800Y55880000D02*
X24384000Y63779200D01*
X7620000Y45720000D02*
X7620000Y44475200D01*
X7153200Y44475200D02*
X7620000Y44475200D01*
X6343600Y43665600D02*
X7153200Y44475200D01*
X6343600Y40153500D02*
X6343600Y43665600D01*
X7127100Y39370000D02*
X6343600Y40153500D01*
X8184400Y39370000D02*
X7127100Y39370000D01*
X10210700Y41396300D02*
X8184400Y39370000D01*
X10210700Y57802600D02*
X10210700Y41396300D01*
X16416100Y64008000D02*
X10210700Y57802600D01*
X16764000Y64008000D02*
X16416100Y64008000D01*
X21844000Y64363600D02*
X21844000Y64008000D01*
X19780600Y66427000D02*
X21844000Y64363600D01*
X18268600Y66427000D02*
X19780600Y66427000D01*
X17203800Y65362200D02*
X18268600Y66427000D01*
X15765400Y65362200D02*
X17203800Y65362200D01*
X14700600Y66427000D02*
X15765400Y65362200D01*
X13684400Y66427000D02*
X14700600Y66427000D01*
X9944600Y62687200D02*
X13684400Y66427000D01*
X9944600Y62534100D02*
X9944600Y62687200D01*
X8864800Y61454300D02*
X9944600Y62534100D01*
X8864800Y57124800D02*
X8864800Y61454300D01*
X7620000Y55880000D02*
X8864800Y57124800D01*
X15240000Y50800000D02*
X18699800Y50800000D01*
X18699800Y50800000D02*
X20955000Y53055200D01*
X20955000Y53055200D02*
X20955000Y57277000D01*
X26924000Y63246000D02*
X26924000Y64008000D01*
X20955000Y57277000D02*
X26924000Y63246000D01*
X65632800Y61031920D02*
X65632800Y62293200D01*
X75311000Y49530000D02*
X75311000Y51353720D01*
X75311000Y51353720D02*
X65632800Y61031920D01*
X29210000Y72390000D02*
X29210000Y71628000D01*
X29210000Y71628000D02*
X30226000Y70612000D01*
X30226000Y70612000D02*
X30226000Y70575900D01*
X30226000Y70575900D02*
X32432400Y68369500D01*
X27051000Y34290000D02*
X27051000Y31750000D01*
X28295800Y11430000D02*
X32131000Y7594800D01*
X28295800Y29260400D02*
X28295800Y11430000D01*
X27051000Y30505200D02*
X28295800Y29260400D01*
X27051000Y31750000D02*
X27051000Y30505200D01*
X32131000Y6350000D02*
X32131000Y7594800D01*
X29591000Y34290000D02*
X29591000Y31750000D01*
X30835800Y13970000D02*
X37211000Y7594800D01*
X30835800Y29260400D02*
X30835800Y13970000D01*
X29591000Y30505200D02*
X30835800Y29260400D01*
X29591000Y31750000D02*
X29591000Y30505200D01*
X37211000Y6350000D02*
X37211000Y7594800D01*
X32131000Y34290000D02*
X32131000Y31750000D01*
X33375800Y13970000D02*
X39751000Y7594800D01*
X33375800Y29260400D02*
X33375800Y13970000D01*
X32131000Y30505200D02*
X33375800Y29260400D01*
X32131000Y31750000D02*
X32131000Y30505200D01*
X39751000Y6350000D02*
X39751000Y7594800D01*
X34671000Y34290000D02*
X34671000Y31750000D01*
X34671000Y31750000D02*
X34671000Y30505200D01*
X42291000Y6350000D02*
X42291000Y7594800D01*
X38506200Y26670000D02*
X34671000Y30505200D01*
X38506200Y11379600D02*
X38506200Y26670000D01*
X42291000Y7594800D02*
X38506200Y11379600D01*
X37211000Y34290000D02*
X37211000Y31750000D01*
X41046200Y11379600D02*
X44831000Y7594800D01*
X41046200Y26670000D02*
X41046200Y11379600D01*
X37211000Y30505200D02*
X41046200Y26670000D01*
X37211000Y31750000D02*
X37211000Y30505200D01*
X44831000Y6350000D02*
X44831000Y7594800D01*
X57531000Y33158630D02*
X57531000Y34290000D01*
X57685951Y33003679D02*
X57531000Y33158630D01*
X57685951Y22606221D02*
X57685951Y33003679D01*
X72418172Y7874000D02*
X57685951Y22606221D01*
X73406000Y7874000D02*
X72418172Y7874000D01*
X54610000Y68580000D02*
X54610000Y67335200D01*
X60071000Y34290000D02*
X60071000Y35534800D01*
X60071000Y47769500D02*
X60071000Y35534800D01*
X58775900Y49064600D02*
X60071000Y47769500D01*
X58775900Y52379600D02*
X58775900Y49064600D01*
X58081800Y53073700D02*
X58775900Y52379600D01*
X58081800Y57741800D02*
X58081800Y53073700D01*
X55854800Y59968800D02*
X58081800Y57741800D01*
X55854800Y66090400D02*
X55854800Y59968800D01*
X54610000Y67335200D02*
X55854800Y66090400D01*
X61315900Y36829900D02*
X62611000Y35534800D01*
X61315900Y51294100D02*
X61315900Y36829900D01*
X60706400Y51903600D02*
X61315900Y51294100D01*
X60706400Y57780500D02*
X60706400Y51903600D01*
X58394800Y60092100D02*
X60706400Y57780500D01*
X58394800Y66090400D02*
X58394800Y60092100D01*
X57150000Y67335200D02*
X58394800Y66090400D01*
X57150000Y68580000D02*
X57150000Y67335200D01*
X62611000Y34290000D02*
X62611000Y35534800D01*
X35915800Y5834200D02*
X35915800Y6350000D01*
X37386500Y4363500D02*
X35915800Y5834200D01*
X37511200Y4363500D02*
X37386500Y4363500D01*
X34671000Y6350000D02*
X35915800Y6350000D01*
X65151000Y34290000D02*
X65151000Y26898400D01*
X23103200Y26782600D02*
X23103200Y33743900D01*
X24511000Y25374800D02*
X23103200Y26782600D01*
X67691000Y34290000D02*
X67691000Y32297700D01*
X24511000Y24130000D02*
X24511000Y25374800D01*
X47371000Y6350000D02*
X48615800Y6350000D01*
X48615800Y6350000D02*
X48615800Y6865800D01*
X48615800Y6865800D02*
X53464480Y11714480D01*
X74564500Y8621500D02*
X72240700Y10945300D01*
X53464480Y11714480D02*
X66104120Y11714480D01*
X66104120Y11714480D02*
X71112900Y6705700D01*
X71112900Y6705700D02*
X73925900Y6705700D01*
X73925900Y6705700D02*
X74564500Y7344300D01*
X74564500Y7344300D02*
X74564500Y8621500D01*
X72240700Y31219700D02*
X75311000Y34290000D01*
X72240700Y10945300D02*
X72240700Y31219700D01*
X15240000Y38100000D02*
X15240000Y36855200D01*
X24511000Y21590000D02*
X24511000Y22834800D01*
X72771000Y49530000D02*
X72771000Y51533800D01*
X14268600Y36855200D02*
X15240000Y36855200D01*
X13995100Y36581700D02*
X14268600Y36855200D01*
X13995100Y34575900D02*
X13995100Y36581700D01*
X14299400Y34271600D02*
X13995100Y34575900D01*
X20066400Y34271600D02*
X14299400Y34271600D01*
X20066400Y26812600D02*
X20066400Y34271600D01*
X24044200Y22834800D02*
X20066400Y26812600D01*
X24511000Y22834800D02*
X24044200Y22834800D01*
X20066400Y34271600D02*
X20066400Y35649000D01*
X15240000Y43180000D02*
X15240000Y41935200D01*
X21971000Y21590000D02*
X20726200Y21590000D01*
X70341500Y50885300D02*
X70341500Y51543000D01*
X70231000Y50774800D02*
X70341500Y50885300D01*
X70231000Y49530000D02*
X70231000Y50774800D01*
X18161000Y27254800D02*
X14410400Y31005400D01*
X18161000Y21040900D02*
X18161000Y27254800D01*
X18902300Y20299600D02*
X18161000Y21040900D01*
X19902600Y20299600D02*
X18902300Y20299600D01*
X20726200Y21123200D02*
X19902600Y20299600D01*
X20726200Y21590000D02*
X20726200Y21123200D01*
X12689000Y32726800D02*
X14410400Y31005400D01*
X12689000Y39900000D02*
X12689000Y32726800D01*
X14724200Y41935200D02*
X12689000Y39900000D01*
X15240000Y41935200D02*
X14724200Y41935200D01*
X15240000Y48260000D02*
X16484800Y48260000D01*
X16484800Y40032700D02*
X16484800Y48260000D01*
X15822100Y39370000D02*
X16484800Y40032700D01*
X14717300Y39370000D02*
X15822100Y39370000D01*
X13349500Y38002200D02*
X14717300Y39370000D01*
X13349500Y33626800D02*
X13349500Y38002200D01*
X19431000Y27545300D02*
X13349500Y33626800D01*
X19431000Y21590000D02*
X19431000Y27545300D01*
X17203000Y48260000D02*
X17228100Y48285100D01*
X16484800Y48260000D02*
X17203000Y48260000D01*
X67608700Y50857100D02*
X67608700Y51511100D01*
X67691000Y50774800D02*
X67608700Y50857100D01*
X67691000Y49530000D02*
X67691000Y50774800D01*
X17165300Y52659500D02*
X16484800Y53340000D01*
X18627100Y52659500D02*
X17165300Y52659500D01*
X18627100Y52659400D02*
X18627100Y52659500D01*
X18829600Y52456900D02*
X18627100Y52659400D01*
X15240000Y53340000D02*
X16484800Y53340000D01*
X16891000Y9027200D02*
X16891000Y6350000D01*
X12828900Y13089300D02*
X16891000Y9027200D01*
X64915100Y51010700D02*
X64915100Y51704000D01*
X65151000Y50774800D02*
X64915100Y51010700D01*
X65151000Y49530000D02*
X65151000Y50774800D01*
X7620000Y58420000D02*
X7620000Y57175200D01*
X4337100Y54549000D02*
X4337100Y51475900D01*
X6963300Y57175200D02*
X4337100Y54549000D01*
X7620000Y57175200D02*
X6963300Y57175200D01*
X62611000Y49530000D02*
X62611000Y50774800D01*
X19431000Y6350000D02*
X19431000Y7594800D01*
X62611000Y52511500D02*
X61810500Y53312000D01*
X62611000Y50774800D02*
X62611000Y52511500D01*
X4337100Y23108100D02*
X4337100Y51475900D01*
X19431000Y8014200D02*
X4337100Y23108100D01*
X19431000Y7594800D02*
X19431000Y8014200D01*
X7620000Y53340000D02*
X7620000Y52095200D01*
X6400300Y48800700D02*
X5671000Y49530000D01*
X7104400Y49504800D02*
X6400300Y48800700D01*
X8108900Y49504800D02*
X7104400Y49504800D01*
X8890100Y50286000D02*
X8108900Y49504800D01*
X8890100Y51340900D02*
X8890100Y50286000D01*
X8135800Y52095200D02*
X8890100Y51340900D01*
X7620000Y52095200D02*
X8135800Y52095200D01*
X21971000Y6350000D02*
X21971000Y7594800D01*
X5665100Y23900700D02*
X21971000Y7594800D01*
X5665100Y48065500D02*
X5665100Y23900700D01*
X6400300Y48800700D02*
X5665100Y48065500D01*
X60071000Y52611600D02*
X59524600Y53158000D01*
X60071000Y49530000D02*
X60071000Y52611600D01*
X24511000Y6350000D02*
X24511000Y5105200D01*
X24511000Y5105200D02*
X24511000Y4367100D01*
X57531000Y43048500D02*
X57531000Y49530000D01*
X58801600Y41777900D02*
X57531000Y43048500D01*
X58801600Y23714300D02*
X58801600Y41777900D01*
X27051000Y6350000D02*
X28295800Y6350000D01*
X28295800Y6350000D02*
X28295800Y4360300D01*
X53721000Y33608900D02*
X56330200Y30999700D01*
X53721000Y36355600D02*
X53721000Y33608900D01*
X54991000Y37625600D02*
X53721000Y36355600D01*
X54991000Y49530000D02*
X54991000Y37625600D01*
X52451000Y21590000D02*
X52451000Y21727160D01*
X52451000Y21727160D02*
X54861460Y24137620D01*
X54861460Y24137620D02*
X53446680Y25552400D01*
X50711100Y25260300D02*
X50213499Y25757901D01*
X53446680Y25552400D02*
X52194460Y25552400D01*
X52194460Y25552400D02*
X51902360Y25260300D01*
X46075900Y30163700D02*
X46075900Y35686300D01*
X51902360Y25260300D02*
X50711100Y25260300D01*
X50213499Y25757901D02*
X50213499Y26026101D01*
X50213499Y26026101D02*
X46075900Y30163700D01*
X39751000Y42011200D02*
X39751000Y49530000D01*
X46075900Y35686300D02*
X39751000Y42011200D01*
X37211000Y49530000D02*
X37211000Y48514000D01*
X37211000Y48514000D02*
X35777400Y47080400D01*
X35777400Y47080400D02*
X33983500Y47080400D01*
X33983500Y47080400D02*
X20754900Y47080400D01*
X20754900Y47080400D02*
X18305300Y49530000D01*
X18305300Y49530000D02*
X14696700Y49530000D01*
X14696700Y49530000D02*
X11940540Y46773840D01*
X11940540Y46773840D02*
X11940540Y31292800D01*
X11940540Y31292800D02*
X11496040Y30848300D01*
X6318500Y36798500D02*
X7620000Y38100000D01*
X11496040Y30848300D02*
X7940700Y30848300D01*
X7940700Y30848300D02*
X6318500Y32470500D01*
X6318500Y32470500D02*
X6318500Y36798500D01*
X15240000Y35560000D02*
X16484800Y35560000D01*
X20754900Y39830100D02*
X20754900Y47080400D01*
X16484800Y35560000D02*
X20754900Y39830100D01*
X27051000Y21590000D02*
X27051000Y24130000D01*
X29591000Y21590000D02*
X29591000Y24130000D01*
X32131000Y21590000D02*
X32131000Y24130000D01*
X34671000Y21590000D02*
X34671000Y24130000D01*
X37211000Y21590000D02*
X37211000Y24130000D01*
X39751000Y21590000D02*
X39751000Y24130000D01*
X42291000Y21590000D02*
X42291000Y24130000D01*
X44831000Y21590000D02*
X44831000Y24130000D01*
D34*
X97028000Y39116000D02*
X95504000Y37592000D01*
X97028000Y66294000D02*
X97028000Y39116000D01*
X92710000Y70612000D02*
X97028000Y66294000D01*
X92710000Y72390000D02*
X92710000Y70612000D01*
D35*
X77682500Y66506500D02*
X76200000Y65024000D01*
X77682500Y70062500D02*
X77682500Y66506500D01*
X80010000Y72390000D02*
X77682500Y70062500D01*
X76200000Y65024000D02*
X72349000Y65024000D01*
X78542200Y63810200D02*
X76200000Y61468000D01*
X78542200Y69486800D02*
X78542200Y63810200D01*
X79188800Y70133400D02*
X78542200Y69486800D01*
X80293400Y70133400D02*
X79188800Y70133400D01*
X82550000Y72390000D02*
X80293400Y70133400D01*
X76200000Y61468000D02*
X72390000Y61468000D01*
X76200000Y68326000D02*
X72390000Y68326000D01*
X76200000Y71120000D02*
X76200000Y68326000D01*
X77470000Y72390000D02*
X76200000Y71120000D01*
X43561000Y51175885D02*
X43501400Y51235485D01*
X47371000Y41624900D02*
X43561000Y45434900D01*
X47371000Y34290000D02*
X47371000Y41624900D01*
X43561000Y45434900D02*
X43561000Y51175885D01*
X43501400Y51235485D02*
X43501400Y52133510D01*
X48342400Y33045200D02*
X47371000Y33045200D01*
X48666100Y32721500D02*
X48342400Y33045200D01*
X48666100Y32202800D02*
X48666100Y32721500D01*
X52293900Y28575000D02*
X48666100Y32202800D01*
X52959000Y28575000D02*
X52293900Y28575000D01*
X47371000Y34290000D02*
X47371000Y33045200D01*
X63250700Y54965000D02*
X63680400Y54535300D01*
X63250700Y59715100D02*
X63250700Y54965000D01*
X63506600Y59971000D02*
X63250700Y59715100D01*
X63506600Y62052000D02*
X63506600Y59971000D01*
X60934900Y64623700D02*
X63506600Y62052000D01*
X60934900Y71145100D02*
X60934900Y64623700D01*
X59690000Y72390000D02*
X60934900Y71145100D01*
D34*
X93726000Y28448000D02*
X90170000Y32004000D01*
X93726000Y23114000D02*
X93726000Y28448000D01*
X90170000Y34623700D02*
X90170000Y32004000D01*
X91694000Y36147700D02*
X90170000Y34623700D01*
X91694000Y37592000D02*
X91694000Y36147700D01*
D35*
X48260000Y58445200D02*
X49530000Y59715200D01*
X48260000Y56896000D02*
X48260000Y58445200D01*
X49530000Y60960000D02*
X49530000Y59715200D01*
X44450000Y59300800D02*
X44450000Y60960000D01*
X45760000Y57990800D02*
X44450000Y59300800D01*
X45760000Y56896000D02*
X45760000Y57990800D01*
X51348000Y58993200D02*
X52070000Y59715200D01*
X51348000Y56896000D02*
X51348000Y58993200D01*
X52070000Y60960000D02*
X52070000Y59715200D01*
X54610000Y60960000D02*
X54610000Y59715200D01*
X54610000Y57658000D02*
X54610000Y59715200D01*
X53848000Y56896000D02*
X54610000Y57658000D01*
X46990000Y60960000D02*
X45745200Y60960000D01*
X45745200Y60960000D02*
X45745200Y62204800D01*
X45745200Y62204800D02*
X45466000Y62484000D01*
X45466000Y62484000D02*
X42926000Y62484000D01*
X42926000Y62484000D02*
X42418000Y61976000D01*
X42418000Y60739100D02*
X40172000Y58493100D01*
X42418000Y61976000D02*
X42418000Y60739100D01*
X40172000Y58493100D02*
X40172000Y56896000D01*
X59436000Y57429200D02*
X57150000Y59715200D01*
X59436000Y56896000D02*
X59436000Y57429200D01*
X57150000Y60960000D02*
X57150000Y59715200D01*
X49530000Y72390000D02*
X49530000Y68580000D01*
X52070000Y72390000D02*
X52070000Y68580000D01*
X85090000Y72390000D02*
X85090000Y70043040D01*
X85090000Y70043040D02*
X89113600Y66019440D01*
X89113600Y66019440D02*
X89113600Y53629600D01*
X89113600Y53629600D02*
X92197200Y50546000D01*
X92197200Y50546000D02*
X93269000Y50546000D01*
X93269000Y50546000D02*
X94005100Y49809900D01*
X94005100Y49809900D02*
X94005100Y46220100D01*
X94005100Y46220100D02*
X93225800Y45440800D01*
X93225800Y45440800D02*
X92710000Y45440800D01*
X92710000Y45440800D02*
X92710000Y44196000D01*
X32131000Y56515000D02*
X32131000Y49530000D01*
X29591000Y56515000D02*
X29591000Y49530000D01*
X27051000Y56515000D02*
X27051000Y49530000D01*
M02*
