M48
;DRILL file {KiCad (2016-11-04 revision c7fcb26)-makepkg} date 11/06/16 05:02:20
;FORMAT={-:-/ absolute / inch / decimal}
FMAT,2
INCH,TZ
T1C0.025
T2C0.031
T3C0.032
T4C0.032
T5C0.039
T6C0.040
%
G90
G05
M72
T1
X0.2257Y2.15
X0.2257Y1.9631
X0.3656Y2.4617
X0.449Y2.6718
X0.4838Y2.7583
X0.6748Y1.5167
X0.6981Y2.1506
X0.7066Y1.7591
X0.72Y1.8712
X0.7312Y2.4599
X0.8345Y1.1525
X1.065Y0.1758
X1.1251Y0.1529
X1.15Y2.745
X1.365Y0.1753
X1.4068Y2.1909
X1.4439Y2.0462
X1.565Y2.0239
X1.7828Y2.0596
X2.215Y1.2158
X2.3126Y1.258
X2.3168Y1.1219
X2.3209Y0.7964
X2.321Y1.0199
X2.3211Y0.9045
X2.3459Y2.0905
X2.3503Y1.221
X2.4522Y2.1002
X2.4925Y0.3118
X2.5347Y2.146
X2.5356Y2.2553
X2.5525Y2.3184
X2.5718Y2.079
X2.6196Y2.3367
X2.6597Y2.6489
X2.665Y1.2761
X2.6672Y2.0238
X2.765Y2.0242
X2.8541Y2.0242
X3.1182Y1.4742
X3.1951Y1.6558
X3.2554Y2.5281
X3.2755Y2.6209
X3.7238Y2.1445
T2
X0.3Y2.3
X0.3Y2.2
X0.3Y2.1
X0.3Y2.
X0.3Y1.9
X0.3Y1.8
X0.3Y1.7
X0.3Y1.6
X0.3Y1.5
X0.3Y1.4
X0.31Y2.58
X0.32Y1.2684
X0.6Y2.3
X0.6Y2.2
X0.6Y2.1
X0.6Y2.
X0.6Y1.9
X0.6Y1.8
X0.6Y1.7
X0.6Y1.6
X0.6Y1.5
X0.6Y1.4
X0.665Y0.85
X0.665Y0.25
X0.765Y0.85
X0.765Y0.25
X0.865Y0.85
X0.865Y0.25
X0.965Y1.25
X0.965Y0.95
X0.965Y0.85
X0.965Y0.25
X1.065Y1.95
X1.065Y1.35
X1.065Y1.25
X1.065Y0.95
X1.065Y0.85
X1.065Y0.25
X1.165Y1.95
X1.165Y1.35
X1.165Y1.25
X1.165Y0.95
X1.165Y0.85
X1.165Y0.25
X1.265Y1.95
X1.265Y1.35
X1.265Y1.25
X1.265Y0.95
X1.265Y0.85
X1.265Y0.25
X1.365Y1.95
X1.365Y1.35
X1.365Y1.25
X1.365Y0.95
X1.365Y0.85
X1.365Y0.25
X1.465Y1.95
X1.465Y1.35
X1.465Y1.25
X1.465Y0.95
X1.465Y0.85
X1.465Y0.25
X1.52Y2.7034
X1.52Y2.605
X1.565Y1.95
X1.565Y1.35
X1.565Y1.25
X1.565Y0.95
X1.565Y0.85
X1.565Y0.25
X1.5816Y2.24
X1.665Y1.95
X1.665Y1.35
X1.665Y1.25
X1.665Y0.95
X1.665Y0.85
X1.665Y0.25
X1.68Y2.24
X1.75Y2.7
X1.75Y2.4
X1.765Y1.95
X1.765Y1.35
X1.765Y1.25
X1.765Y0.95
X1.765Y0.85
X1.765Y0.25
X1.8016Y2.24
X1.85Y2.7
X1.85Y2.4
X1.865Y1.95
X1.865Y1.35
X1.865Y1.25
X1.865Y0.95
X1.865Y0.85
X1.865Y0.25
X1.9Y2.24
X1.95Y2.7
X1.95Y2.4
X1.965Y1.95
X1.965Y1.35
X1.965Y0.85
X1.965Y0.25
X2.02Y1.0434
X2.0216Y2.24
X2.05Y2.7
X2.05Y2.4
X2.065Y1.95
X2.065Y1.35
X2.065Y0.85
X2.065Y0.25
X2.0984Y1.245
X2.12Y2.24
X2.15Y2.7
X2.15Y2.4
X2.165Y1.95
X2.165Y1.35
X2.165Y0.85
X2.165Y0.25
X2.2416Y2.24
X2.25Y2.7
X2.25Y2.4
X2.265Y1.95
X2.265Y1.35
X2.325Y0.345
X2.34Y2.24
X2.35Y2.7
X2.35Y2.4
X2.365Y1.95
X2.365Y1.35
X2.45Y2.7
X2.45Y2.4
X2.465Y1.95
X2.465Y1.35
X2.565Y1.95
X2.565Y1.35
X2.665Y1.95
X2.665Y1.35
X2.765Y1.95
X2.765Y1.35
X2.865Y1.95
X2.865Y1.35
X2.965Y1.95
X2.965Y1.35
X3.25Y1.5534
X3.35Y2.54
X3.35Y2.44
X3.35Y2.34
X3.35Y2.24
X3.35Y2.14
X3.35Y2.04
X3.35Y1.94
X3.35Y1.84
X3.35Y1.74
X3.35Y1.64
X3.65Y2.54
X3.65Y2.44
X3.65Y2.34
X3.65Y2.24
X3.65Y2.14
X3.65Y2.04
X3.65Y1.94
X3.65Y1.84
X3.65Y1.74
X3.65Y1.64
T3
X0.32Y1.17
X0.4084Y2.58
X2.Y1.245
X2.02Y0.945
X2.325Y0.2466
X3.25Y1.455
T4
X0.56Y2.67
X0.56Y2.57
X0.66Y2.62
X0.66Y2.52
X0.76Y2.67
X0.76Y2.57
X0.86Y2.62
X0.86Y2.52
X0.96Y2.67
X0.96Y2.57
X1.06Y2.62
X1.06Y2.52
X2.085Y1.125
X2.185Y1.125
X2.64Y0.95
X2.64Y0.35
X2.7484Y2.56
X2.75Y2.69
X2.75Y2.42
X2.8484Y2.56
X2.85Y2.69
X2.85Y2.42
X2.94Y0.95
X2.94Y0.35
X3.65Y0.49
X3.65Y0.39
T5
X3.Y2.69
X3.Y2.56
X3.Y2.42
X3.15Y2.69
X3.15Y2.56
X3.15Y2.42
X3.32Y0.36
X3.35Y0.91
X3.35Y0.81
X3.35Y0.71
X3.42Y0.36
X3.61Y1.48
X3.69Y0.91
X3.69Y0.81
X3.69Y0.71
X3.76Y1.48
T6
X0.35Y2.85
X0.45Y2.85
X0.55Y2.85
X0.65Y2.85
X0.75Y2.85
X0.85Y2.85
X1.05Y2.85
X1.15Y2.85
X1.35Y2.85
X1.45Y2.85
X1.55Y2.85
X1.65Y2.85
X1.85Y2.85
X1.95Y2.85
X2.05Y2.85
X2.25Y2.85
X2.35Y2.85
X2.45Y2.85
X2.55Y2.85
X2.65Y2.85
X2.85Y2.85
X2.95Y2.85
X3.05Y2.85
X3.15Y2.85
X3.25Y2.85
X3.35Y2.85
X3.35Y1.26
X3.55Y2.85
X3.55Y1.26
X3.65Y2.85
T0
M30
