G04 #@! TF.FileFunction,Copper,L1,Top,Signal*
%FSLAX46Y46*%
G04 Gerber Fmt 4.6, Leading zero omitted, Abs format (unit mm)*
G04 Created by KiCad (PCBNEW (2016-11-04 revision c7fcb26)-makepkg) date 11/06/16 11:44:34*
%MOMM*%
%LPD*%
G01*
G04 APERTURE LIST*
%ADD10C,0.100000*%
%ADD11C,0.300000*%
%ADD12C,1.397000*%
%ADD13O,2.499360X1.501140*%
%ADD14R,2.499360X1.501140*%
%ADD15R,1.600000X1.600000*%
%ADD16O,1.600000X1.600000*%
%ADD17R,1.397000X1.397000*%
%ADD18R,1.778000X1.778000*%
%ADD19C,1.778000*%
%ADD20R,1.900000X2.000000*%
%ADD21C,1.900000*%
%ADD22C,1.998980*%
%ADD23R,1.998980X1.998980*%
%ADD24R,2.032000X2.032000*%
%ADD25O,2.032000X2.032000*%
%ADD26R,1.727200X2.032000*%
%ADD27O,1.727200X2.032000*%
%ADD28C,1.300000*%
%ADD29R,1.300000X1.300000*%
%ADD30C,1.066800*%
%ADD31C,0.304800*%
G04 APERTURE END LIST*
D10*
D11*
X7449395Y11221274D02*
X7570348Y11100322D01*
X7691300Y10737465D01*
X7691300Y10495560D01*
X7570348Y10132703D01*
X7328443Y9890798D01*
X7086538Y9769846D01*
X6602729Y9648893D01*
X6239872Y9648893D01*
X5756062Y9769846D01*
X5514157Y9890798D01*
X5272253Y10132703D01*
X5151300Y10495560D01*
X5151300Y10737465D01*
X5272253Y11100322D01*
X5393205Y11221274D01*
X6965586Y12188893D02*
X6965586Y13398417D01*
X7691300Y11946988D02*
X5151300Y12793655D01*
X7691300Y13640322D01*
X5151300Y14124131D02*
X5151300Y15575560D01*
X7691300Y14849846D02*
X5151300Y14849846D01*
X6723681Y16422226D02*
X6723681Y18357465D01*
X5151300Y20655560D02*
X5151300Y20171750D01*
X5272253Y19929846D01*
X5393205Y19808893D01*
X5756062Y19566988D01*
X6239872Y19446036D01*
X7207491Y19446036D01*
X7449395Y19566988D01*
X7570348Y19687941D01*
X7691300Y19929846D01*
X7691300Y20413655D01*
X7570348Y20655560D01*
X7449395Y20776512D01*
X7207491Y20897465D01*
X6602729Y20897465D01*
X6360824Y20776512D01*
X6239872Y20655560D01*
X6118919Y20413655D01*
X6118919Y19929846D01*
X6239872Y19687941D01*
X6360824Y19566988D01*
X6602729Y19446036D01*
X5997967Y23074607D02*
X7691300Y23074607D01*
X5030348Y22469846D02*
X6844633Y21865084D01*
X6844633Y23437465D01*
X5997967Y25493655D02*
X7691300Y25493655D01*
X5030348Y24888893D02*
X6844633Y24284131D01*
X6844633Y25856512D01*
X11801300Y9830322D02*
X9261300Y9830322D01*
X11075586Y10676988D01*
X9261300Y11523655D01*
X11801300Y11523655D01*
X11680348Y12612226D02*
X11801300Y12975084D01*
X11801300Y13579846D01*
X11680348Y13821750D01*
X11559395Y13942703D01*
X11317491Y14063655D01*
X11075586Y14063655D01*
X10833681Y13942703D01*
X10712729Y13821750D01*
X10591776Y13579846D01*
X10470824Y13096036D01*
X10349872Y12854131D01*
X10228919Y12733179D01*
X9987014Y12612226D01*
X9745110Y12612226D01*
X9503205Y12733179D01*
X9382253Y12854131D01*
X9261300Y13096036D01*
X9261300Y13700798D01*
X9382253Y14063655D01*
X9503205Y16966512D02*
X9382253Y17087465D01*
X9261300Y17329369D01*
X9261300Y17934131D01*
X9382253Y18176036D01*
X9503205Y18296988D01*
X9745110Y18417941D01*
X9987014Y18417941D01*
X10349872Y18296988D01*
X11801300Y16845560D01*
X11801300Y18417941D01*
X9261300Y19990322D02*
X9261300Y20232227D01*
X9382253Y20474131D01*
X9503205Y20595084D01*
X9745110Y20716036D01*
X10228919Y20836988D01*
X10833681Y20836988D01*
X11317491Y20716036D01*
X11559395Y20595084D01*
X11680348Y20474131D01*
X11801300Y20232227D01*
X11801300Y19990322D01*
X11680348Y19748417D01*
X11559395Y19627465D01*
X11317491Y19506512D01*
X10833681Y19385560D01*
X10228919Y19385560D01*
X9745110Y19506512D01*
X9503205Y19627465D01*
X9382253Y19748417D01*
X9261300Y19990322D01*
X11801300Y23256036D02*
X11801300Y21804607D01*
X11801300Y22530322D02*
X9261300Y22530322D01*
X9624157Y22288417D01*
X9866062Y22046512D01*
X9987014Y21804607D01*
X9261300Y25433179D02*
X9261300Y24949369D01*
X9382253Y24707465D01*
X9503205Y24586512D01*
X9866062Y24344607D01*
X10349872Y24223655D01*
X11317491Y24223655D01*
X11559395Y24344607D01*
X11680348Y24465560D01*
X11801300Y24707465D01*
X11801300Y25191274D01*
X11680348Y25433179D01*
X11559395Y25554131D01*
X11317491Y25675084D01*
X10712729Y25675084D01*
X10470824Y25554131D01*
X10349872Y25433179D01*
X10228919Y25191274D01*
X10228919Y24707465D01*
X10349872Y24465560D01*
X10470824Y24344607D01*
X10712729Y24223655D01*
D12*
X92710000Y9906000D03*
X92710000Y12446000D03*
D13*
X93726000Y20574000D03*
D14*
X93726000Y23114000D03*
D13*
X93726000Y18034000D03*
D15*
X92710000Y41656000D03*
D16*
X92710000Y44196000D03*
X92710000Y46736000D03*
X92710000Y49276000D03*
X92710000Y51816000D03*
X92710000Y54356000D03*
X92710000Y56896000D03*
X92710000Y59436000D03*
X92710000Y61976000D03*
X92710000Y64516000D03*
X85090000Y64516000D03*
X85090000Y61976000D03*
X85090000Y59436000D03*
X85090000Y56896000D03*
X85090000Y54356000D03*
X85090000Y51816000D03*
X85090000Y49276000D03*
X85090000Y46736000D03*
X85090000Y44196000D03*
X85090000Y41656000D03*
D17*
X67056000Y24130000D03*
D12*
X67056000Y8890000D03*
X74676000Y8890000D03*
X74676000Y24130000D03*
D15*
X54991000Y21590000D03*
D16*
X52451000Y21590000D03*
X49911000Y21590000D03*
X47371000Y21590000D03*
X44831000Y21590000D03*
X42291000Y21590000D03*
X39751000Y21590000D03*
X37211000Y21590000D03*
X34671000Y21590000D03*
X32131000Y21590000D03*
X29591000Y21590000D03*
X27051000Y21590000D03*
X24511000Y21590000D03*
X21971000Y21590000D03*
X19431000Y21590000D03*
X16891000Y21590000D03*
X16891000Y6350000D03*
X19431000Y6350000D03*
X21971000Y6350000D03*
X24511000Y6350000D03*
X27051000Y6350000D03*
X29591000Y6350000D03*
X32131000Y6350000D03*
X34671000Y6350000D03*
X37211000Y6350000D03*
X39751000Y6350000D03*
X42291000Y6350000D03*
X44831000Y6350000D03*
X47371000Y6350000D03*
X49911000Y6350000D03*
X52451000Y6350000D03*
X54991000Y6350000D03*
D15*
X47371000Y31750000D03*
D16*
X44831000Y31750000D03*
X42291000Y31750000D03*
X39751000Y31750000D03*
X37211000Y31750000D03*
X34671000Y31750000D03*
X32131000Y31750000D03*
X29591000Y31750000D03*
X27051000Y31750000D03*
X24511000Y31750000D03*
X24511000Y24130000D03*
X27051000Y24130000D03*
X29591000Y24130000D03*
X32131000Y24130000D03*
X34671000Y24130000D03*
X37211000Y24130000D03*
X39751000Y24130000D03*
X42291000Y24130000D03*
X44831000Y24130000D03*
X47371000Y24130000D03*
D18*
X90170000Y32004000D03*
D19*
X85090000Y32004000D03*
D20*
X84328000Y9144000D03*
D21*
X86868000Y9144000D03*
D15*
X27051000Y34290000D03*
D16*
X29591000Y34290000D03*
X32131000Y34290000D03*
X34671000Y34290000D03*
X37211000Y34290000D03*
X39751000Y34290000D03*
X42291000Y34290000D03*
X44831000Y34290000D03*
X47371000Y34290000D03*
X49911000Y34290000D03*
X52451000Y34290000D03*
X54991000Y34290000D03*
X57531000Y34290000D03*
X60071000Y34290000D03*
X62611000Y34290000D03*
X65151000Y34290000D03*
X67691000Y34290000D03*
X70231000Y34290000D03*
X72771000Y34290000D03*
X75311000Y34290000D03*
X75311000Y49530000D03*
X72771000Y49530000D03*
X70231000Y49530000D03*
X67691000Y49530000D03*
X65151000Y49530000D03*
X62611000Y49530000D03*
X60071000Y49530000D03*
X57531000Y49530000D03*
X54991000Y49530000D03*
X52451000Y49530000D03*
X49911000Y49530000D03*
X47371000Y49530000D03*
X44831000Y49530000D03*
X42291000Y49530000D03*
X39751000Y49530000D03*
X37211000Y49530000D03*
X34671000Y49530000D03*
X32131000Y49530000D03*
X29591000Y49530000D03*
X27051000Y49530000D03*
D15*
X15240000Y35560000D03*
D16*
X15240000Y38100000D03*
X15240000Y40640000D03*
X15240000Y43180000D03*
X15240000Y45720000D03*
X15240000Y48260000D03*
X15240000Y50800000D03*
X15240000Y53340000D03*
X15240000Y55880000D03*
X15240000Y58420000D03*
X7620000Y58420000D03*
X7620000Y55880000D03*
X7620000Y53340000D03*
X7620000Y50800000D03*
X7620000Y48260000D03*
X7620000Y45720000D03*
X7620000Y43180000D03*
X7620000Y40640000D03*
X7620000Y38100000D03*
X7620000Y35560000D03*
X44450000Y60960000D03*
X46990000Y60960000D03*
X49530000Y60960000D03*
X52070000Y60960000D03*
X54610000Y60960000D03*
X57150000Y60960000D03*
X59690000Y60960000D03*
X62230000Y60960000D03*
X62230000Y68580000D03*
X59690000Y68580000D03*
X57150000Y68580000D03*
X54610000Y68580000D03*
X52070000Y68580000D03*
X49530000Y68580000D03*
X46990000Y68580000D03*
X44450000Y68580000D03*
D22*
X95504000Y37592000D03*
D23*
X91694000Y37592000D03*
D22*
X76200000Y65024000D03*
D23*
X80010000Y65024000D03*
D22*
X76200000Y61468000D03*
D23*
X80010000Y61468000D03*
D22*
X76200000Y68326000D03*
D23*
X80010000Y68326000D03*
D24*
X90170000Y72390000D03*
D25*
X92710000Y72390000D03*
D26*
X46990000Y72390000D03*
D27*
X49530000Y72390000D03*
X52070000Y72390000D03*
D26*
X34290000Y72390000D03*
D27*
X36830000Y72390000D03*
X39370000Y72390000D03*
X41910000Y72390000D03*
D24*
X26670000Y72390000D03*
D25*
X29210000Y72390000D03*
D26*
X8890000Y72390000D03*
D27*
X11430000Y72390000D03*
X13970000Y72390000D03*
X16510000Y72390000D03*
X19050000Y72390000D03*
X21590000Y72390000D03*
D13*
X85090000Y20574000D03*
D14*
X85090000Y18034000D03*
D13*
X85090000Y23114000D03*
D26*
X57150000Y72390000D03*
D27*
X59690000Y72390000D03*
X62230000Y72390000D03*
X64770000Y72390000D03*
X67310000Y72390000D03*
D26*
X72390000Y72390000D03*
D27*
X74930000Y72390000D03*
X77470000Y72390000D03*
X80010000Y72390000D03*
X82550000Y72390000D03*
X85090000Y72390000D03*
D12*
X55499000Y28575000D03*
X52959000Y28575000D03*
X14224000Y67818000D03*
X14224000Y65278000D03*
X19304000Y67818000D03*
X19304000Y65278000D03*
X24384000Y67818000D03*
X24384000Y65278000D03*
X16764000Y66548000D03*
X16764000Y64008000D03*
X21844000Y66548000D03*
X21844000Y64008000D03*
X26924000Y66548000D03*
X26924000Y64008000D03*
X69850000Y61468000D03*
X72390000Y61468000D03*
X69809000Y65024000D03*
X72349000Y65024000D03*
X69850000Y68326000D03*
X72390000Y68326000D03*
D28*
X7874000Y65532000D03*
X10374000Y65532000D03*
X48260000Y56896000D03*
D29*
X45760000Y56896000D03*
X51348000Y56896000D03*
D28*
X53848000Y56896000D03*
X42672000Y56896000D03*
D29*
X40172000Y56896000D03*
X56936000Y56896000D03*
D28*
X59436000Y56896000D03*
X8128000Y32218000D03*
X8128000Y29718000D03*
X82550000Y36957000D03*
X82550000Y39457000D03*
X59055000Y8763000D03*
X59055000Y6263000D03*
X50800000Y31623000D03*
X53300000Y31623000D03*
X38608000Y66167000D03*
D29*
X38608000Y68667000D03*
D28*
X51308000Y26503000D03*
X51308000Y24003000D03*
D30*
X11404500Y67864800D03*
X64405500Y57283500D03*
X36673800Y51973100D03*
X82687500Y64213300D03*
X81156400Y42056800D03*
X94583700Y54470700D03*
X58949600Y20229300D03*
X79201800Y37443600D03*
X58955200Y22973600D03*
X67556400Y67283300D03*
X35733700Y55649600D03*
X83198900Y66570400D03*
X45284000Y52313200D03*
X65324000Y52806800D03*
X12288000Y70059800D03*
X64832700Y58886200D03*
X9286500Y62527500D03*
X18571800Y62482300D03*
X29210000Y69723800D03*
X66538500Y59351200D03*
X59697400Y31013700D03*
X63310600Y7919300D03*
X58847800Y28495300D03*
X34671000Y4452700D03*
X67691000Y32413700D03*
X21196700Y29273900D03*
X72493400Y51414300D03*
X17140500Y38523000D03*
X70231000Y51415300D03*
X17946600Y44679900D03*
X67747500Y51403600D03*
X18287500Y47529600D03*
X64382000Y54508600D03*
X17732900Y54626200D03*
X62286900Y53346100D03*
X5733200Y54610000D03*
X59585700Y53098600D03*
X5733200Y49861800D03*
X58740300Y31953900D03*
X28576700Y3884600D03*
X56260800Y30880100D03*
X27051000Y4466300D03*
X39751000Y51406100D03*
X58952900Y25904200D03*
D31*
X63241000Y58448000D02*
X64405500Y57283500D01*
X23987700Y58448000D02*
X63241000Y58448000D01*
X17157700Y65278000D02*
X23987700Y58448000D01*
X15887700Y65278000D02*
X17157700Y65278000D01*
X14617700Y66548000D02*
X15887700Y65278000D01*
X12721300Y66548000D02*
X14617700Y66548000D01*
X11404500Y67864800D02*
X12721300Y66548000D01*
X37074200Y52373500D02*
X36673800Y51973100D01*
X43767500Y52373500D02*
X37074200Y52373500D01*
X44769600Y51371400D02*
X43767500Y52373500D01*
X65435300Y51371400D02*
X44769600Y51371400D01*
X68692900Y54629000D02*
X65435300Y51371400D01*
X71417900Y54629000D02*
X68692900Y54629000D01*
X77677600Y60888700D02*
X71417900Y54629000D01*
X77677600Y61715700D02*
X77677600Y60888700D01*
X79579600Y63617700D02*
X77677600Y61715700D01*
X82091900Y63617700D02*
X79579600Y63617700D01*
X82687500Y64213300D02*
X82091900Y63617700D01*
X84565600Y45466000D02*
X81156400Y42056800D01*
X85594900Y45466000D02*
X84565600Y45466000D01*
X87807200Y47678300D02*
X85594900Y45466000D01*
X87807200Y48629800D02*
X87807200Y47678300D01*
X92457600Y53280200D02*
X87807200Y48629800D01*
X93393200Y53280200D02*
X92457600Y53280200D01*
X94583700Y54470700D02*
X93393200Y53280200D01*
X65139200Y20229300D02*
X58949600Y20229300D01*
X81156400Y36246500D02*
X65139200Y20229300D01*
X81156400Y42056800D02*
X81156400Y36246500D01*
X61326600Y25345000D02*
X58955200Y22973600D01*
X68158100Y25345000D02*
X61326600Y25345000D01*
X79201800Y36388700D02*
X68158100Y25345000D01*
X79201800Y37443600D02*
X79201800Y36388700D01*
X68267100Y66570400D02*
X83198900Y66570400D01*
X68267100Y66572600D02*
X67556400Y67283300D01*
X68267100Y66570400D02*
X68267100Y66572600D01*
X68267100Y59746500D02*
X68267100Y66570400D01*
X64170200Y55649600D02*
X68267100Y59746500D01*
X35733700Y55649600D02*
X64170200Y55649600D01*
X64659800Y52142600D02*
X65324000Y52806800D01*
X45454600Y52142600D02*
X64659800Y52142600D01*
X45284000Y52313200D02*
X45454600Y52142600D01*
X12288000Y70059700D02*
X12288000Y70059800D01*
X19996000Y70059700D02*
X12288000Y70059700D01*
X23507700Y66548000D02*
X19996000Y70059700D01*
X24777700Y66548000D02*
X23507700Y66548000D01*
X26047700Y65278000D02*
X24777700Y66548000D01*
X35672900Y65278000D02*
X26047700Y65278000D01*
X41197700Y59753200D02*
X35672900Y65278000D01*
X63965700Y59753200D02*
X41197700Y59753200D01*
X64832700Y58886200D02*
X63965700Y59753200D01*
X18526600Y62527500D02*
X18571800Y62482300D01*
X9286500Y62527500D02*
X18526600Y62527500D01*
X39493400Y69723800D02*
X29210000Y69723800D01*
X44447200Y64770000D02*
X39493400Y69723800D01*
X61119700Y64770000D02*
X44447200Y64770000D01*
X66538500Y59351200D02*
X61119700Y64770000D01*
X57932000Y13297900D02*
X63310600Y7919300D01*
X57932000Y26228200D02*
X57932000Y13297900D01*
X59797200Y28093400D02*
X57932000Y26228200D01*
X59797200Y30913900D02*
X59797200Y28093400D01*
X59697400Y31013700D02*
X59797200Y30913900D01*
X37046600Y4452700D02*
X34671000Y4452700D01*
X38481000Y5887100D02*
X37046600Y4452700D01*
X38481000Y6863000D02*
X38481000Y5887100D01*
X39175100Y7557100D02*
X38481000Y6863000D01*
X40174000Y7557100D02*
X39175100Y7557100D01*
X53784200Y21167300D02*
X40174000Y7557100D01*
X53784200Y23431700D02*
X53784200Y21167300D01*
X58847800Y28495300D02*
X53784200Y23431700D01*
X67170900Y32933800D02*
X67691000Y32413700D01*
X56929100Y32933800D02*
X67170900Y32933800D01*
X54299100Y30303800D02*
X56929100Y32933800D01*
X22226600Y30303800D02*
X54299100Y30303800D01*
X21196700Y29273900D02*
X22226600Y30303800D01*
X61141500Y38523000D02*
X17140500Y38523000D01*
X71858900Y49240400D02*
X61141500Y38523000D01*
X71858900Y50779800D02*
X71858900Y49240400D01*
X72493400Y51414300D02*
X71858900Y50779800D01*
X64951200Y44679900D02*
X17946600Y44679900D01*
X69155200Y48883900D02*
X64951200Y44679900D01*
X69155200Y50339500D02*
X69155200Y48883900D01*
X70231000Y51415300D02*
X69155200Y50339500D01*
X66615200Y50271300D02*
X67747500Y51403600D01*
X66615200Y48823800D02*
X66615200Y50271300D01*
X65321000Y47529600D02*
X66615200Y48823800D01*
X18287500Y47529600D02*
X65321000Y47529600D01*
X64264400Y54626200D02*
X17732900Y54626200D01*
X64382000Y54508600D02*
X64264400Y54626200D01*
X15909600Y54610000D02*
X5733200Y54610000D01*
X16848600Y53671000D02*
X15909600Y54610000D01*
X21168600Y53671000D02*
X16848600Y53671000D01*
X21552100Y54054500D02*
X21168600Y53671000D01*
X61578500Y54054500D02*
X21552100Y54054500D01*
X62286900Y53346100D02*
X61578500Y54054500D01*
X6065000Y49530000D02*
X5733200Y49861800D01*
X18325600Y49530000D02*
X6065000Y49530000D01*
X22092600Y53297000D02*
X18325600Y49530000D01*
X59387300Y53297000D02*
X22092600Y53297000D01*
X59585700Y53098600D02*
X59387300Y53297000D01*
X28854000Y3884600D02*
X28576700Y3884600D01*
X30861000Y5891600D02*
X28854000Y3884600D01*
X30861000Y6824900D02*
X30861000Y5891600D01*
X31634000Y7597900D02*
X30861000Y6824900D01*
X37646300Y7597900D02*
X31634000Y7597900D01*
X51181000Y21132600D02*
X37646300Y7597900D01*
X51181000Y22381500D02*
X51181000Y21132600D01*
X58740300Y29940800D02*
X51181000Y22381500D01*
X58740300Y31953900D02*
X58740300Y29940800D01*
X56164400Y30880100D02*
X56260800Y30880100D01*
X54229000Y28944700D02*
X56164400Y30880100D01*
X54229000Y27883100D02*
X54229000Y28944700D01*
X51598900Y25253000D02*
X54229000Y27883100D01*
X51049700Y25253000D02*
X51598900Y25253000D01*
X48719900Y22923200D02*
X51049700Y25253000D01*
X44420300Y22923200D02*
X48719900Y22923200D01*
X43561000Y22063900D02*
X44420300Y22923200D01*
X43561000Y21102200D02*
X43561000Y22063900D01*
X31568100Y9109300D02*
X43561000Y21102200D01*
X30572000Y9109300D02*
X31568100Y9109300D01*
X28126800Y6664100D02*
X30572000Y9109300D01*
X28126800Y5542100D02*
X28126800Y6664100D01*
X27051000Y4466300D02*
X28126800Y5542100D01*
X40346600Y50810500D02*
X39751000Y51406100D01*
X65676400Y50810500D02*
X40346600Y50810500D01*
X67276500Y52410600D02*
X65676400Y50810500D01*
X72838600Y52410600D02*
X67276500Y52410600D01*
X73979000Y51270200D02*
X72838600Y52410600D01*
X73979000Y47282500D02*
X73979000Y51270200D01*
X71500900Y44804400D02*
X73979000Y47282500D01*
X71500900Y33849600D02*
X71500900Y44804400D01*
X63555500Y25904200D02*
X71500900Y33849600D01*
X58952900Y25904200D02*
X63555500Y25904200D01*
M02*
